mtllib Arrow.mtl
o Arrow.obj
v 0.000000 0.000000 -2.000000
v -1.000000 0.000000 -1.000000
v 0.000000 0.000000 -1.000000
v 1.000000 0.000000 -1.000000
v -2.000000 0.000000 0.000000
v -1.000000 0.000000 0.000000
v 0.000000 0.000000 0.000000
v 1.000000 0.000000 0.000000
v 2.000000 0.000000 0.000000
v -1.000000 0.000000 1.000000
v 0.000000 0.000000 1.000000
v 1.000000 0.000000 1.000000
v -1.000000 0.000000 2.000000
v 0.000000 0.000000 2.000000
v 1.000000 0.000000 2.000000
vn 0.000000 1.000000 0.000000
vn 0.000000 1.000000 0.000000
vn 0.000000 1.000000 0.000000
vn 0.000000 1.000000 0.000000
vn 0.000000 1.000000 0.000000
vn 0.000000 1.000000 0.000000
vn 0.000000 1.000000 0.000000
vn 0.000000 1.000000 0.000000
vn 0.000000 1.000000 0.000000
vn 0.000000 1.000000 0.000000
vn 0.000000 1.000000 0.000000
vn 0.000000 1.000000 0.000000
vn 0.000000 1.000000 0.000000
vn 0.000000 1.000000 0.000000
vn 0.000000 1.000000 0.000000
vt 0.004950 0.500000
vt 0.252475 0.500000
vt 0.252475 0.747525
vt 0.500000 0.747525
vt 0.500000 0.995049
vt 0.500000 0.500000
vt 0.252475 0.252475
vt 0.500000 0.252475
vt 0.252475 0.004950
vt 0.500000 0.004950
vt 0.747525 0.747525
vt 0.747525 0.500000
vt 0.747525 0.252475
vt 0.747525 0.004950
vt 0.995049 0.500000
g Grid
usemtl Default
f 5/1/5 6/2/6 2/3/2 
f 2/3/2 3/4/3 1/5/1 
f 6/2/6 7/6/7 3/4/3 2/3/2 
f 10/7/10 11/8/11 7/6/7 6/2/6 
f 13/9/13 14/10/14 11/8/11 10/7/10 
f 3/4/3 4/11/4 1/5/1 
f 7/6/7 8/12/8 4/11/4 3/4/3 
f 11/8/11 12/13/12 8/12/8 7/6/7 
f 14/10/14 15/14/15 12/13/12 11/8/11 
f 8/12/8 9/15/9 4/11/4 
