mtllib Maze.mtl
o Maze.obj
v -5.000000 0.000000 -5.000000
v -4.000000 0.000000 -5.000000
v -3.000000 0.000000 -5.000000
v -2.000000 0.000000 -5.000000
v -5.000000 0.000000 -4.000000
v -4.000000 0.000000 -4.000000
v -3.000000 0.000000 -4.000000
v -2.000000 0.000000 -4.000000
v 2.000000 0.000000 -4.000000
v 3.000000 0.000000 -4.000000
v 4.000000 0.000000 -4.000000
v 5.000000 0.000000 -4.000000
v -5.000000 0.000000 -3.000000
v -4.000000 0.000000 -3.000000
v -3.000000 0.000000 -3.000000
v -2.000000 0.000000 -3.000000
v 2.000000 0.000000 -3.000000
v 3.000000 0.000000 -3.000000
v 4.000000 0.000000 -3.000000
v 5.000000 0.000000 -3.000000
v -5.000000 0.000000 -2.000000
v -4.000000 0.000000 -2.000000
v -3.000000 0.000000 -2.000000
v -2.000000 0.000000 -2.000000
v 2.000000 0.000000 -2.000000
v 3.000000 0.000000 -2.000000
v 4.000000 0.000000 -2.000000
v 5.000000 0.000000 -2.000000
v -5.000000 0.000000 -1.000000
v -4.000000 0.000000 -1.000000
v -3.000000 0.000000 -1.000000
v -2.000000 0.000000 -1.000000
v -1.000000 0.000000 -1.000000
v 0.000000 0.000000 -1.000000
v 2.000000 0.000000 -1.000000
v 3.000000 0.000000 -1.000000
v 4.000000 0.000000 -1.000000
v 5.000000 0.000000 -1.000000
v -5.000000 0.000000 0.000000
v -4.000000 0.000000 0.000000
v -3.000000 0.000000 0.000000
v -2.000000 0.000000 0.000000
v -1.000000 0.000000 0.000000
v 0.000000 0.000000 0.000000
v 1.000000 0.000000 0.000000
v 2.000000 0.000000 0.000000
v 3.000000 0.000000 0.000000
v 4.000000 0.000000 0.000000
v -4.000000 0.000000 1.000000
v -3.000000 0.000000 1.000000
v -2.000000 0.000000 1.000000
v -1.000000 0.000000 1.000000
v 1.000000 0.000000 1.000000
v 2.000000 0.000000 1.000000
v 3.000000 0.000000 1.000000
v 4.000000 0.000000 1.000000
v -4.000000 0.000000 2.000000
v -3.000000 0.000000 2.000000
v -2.000000 0.000000 2.000000
v -1.000000 0.000000 2.000000
v 0.000000 0.000000 2.000000
v 1.000000 0.000000 2.000000
v 2.000000 0.000000 2.000000
v 3.000000 0.000000 2.000000
v 4.000000 0.000000 2.000000
v -5.000000 0.000000 3.000000
v -4.000000 0.000000 3.000000
v -3.000000 0.000000 3.000000
v -2.000000 0.000000 3.000000
v -1.000000 0.000000 3.000000
v 0.000000 0.000000 3.000000
v 1.000000 0.000000 3.000000
v 2.000000 0.000000 3.000000
v 3.000000 0.000000 3.000000
v 4.000000 0.000000 3.000000
v -5.000000 0.000000 4.000000
v -4.000000 0.000000 4.000000
v -3.000000 0.000000 4.000000
v -2.000000 0.000000 4.000000
v -1.000000 0.000000 4.000000
v 0.000000 0.000000 4.000000
v 1.000000 0.000000 4.000000
v 2.000000 0.000000 4.000000
v 3.000000 0.000000 4.000000
v -5.000000 0.000000 5.000000
v -4.000000 0.000000 5.000000
v -3.000000 0.000000 5.000000
v -2.000000 0.000000 5.000000
v -1.000000 0.000000 5.000000
v 1.000000 0.000000 5.000000
v 2.000000 0.000000 5.000000
v -5.000000 -0.364171 -5.000000
v -4.000000 -0.364171 -5.000000
v -3.000000 -0.364171 -5.000000
v -2.000000 -0.364171 -5.000000
v -5.000000 -0.364171 -4.000000
v -2.000000 -0.364171 -4.000000
v 2.000000 -0.364171 -4.000000
v 3.000000 -0.364171 -4.000000
v 4.000000 -0.364171 -4.000000
v 5.000000 -0.364171 -4.000000
v -5.000000 -0.364171 -3.000000
v -2.000000 -0.364171 -3.000000
v 2.000000 -0.364171 -3.000000
v 5.000000 -0.364171 -3.000000
v -5.000000 -0.364171 -2.000000
v -4.000000 -0.364171 -2.000000
v -3.000000 -0.364171 -2.000000
v -2.000000 -0.364171 -2.000000
v 2.000000 -0.364171 -2.000000
v 5.000000 -0.364171 -2.000000
v -5.000000 -0.364171 -1.000000
v -4.000000 -0.364171 -1.000000
v -3.000000 -0.364171 -1.000000
v -2.000000 -0.364171 -1.000000
v -1.000000 -0.364171 -1.000000
v 0.000000 -0.364171 -1.000000
v 2.000000 -0.364171 -1.000000
v 3.000000 -0.364171 -1.000000
v 4.000000 -0.364171 -1.000000
v 5.000000 -0.364171 -1.000000
v -5.000000 -0.364171 0.000000
v -4.000000 -0.364171 0.000000
v -3.000000 -0.364171 0.000000
v -2.000000 -0.364171 0.000000
v -1.000000 -0.364171 0.000000
v 0.000000 -0.364171 0.000000
v 1.000000 -0.364171 0.000000
v 2.000000 -0.364171 0.000000
v 3.000000 -0.364171 0.000000
v 4.000000 -0.364171 0.000000
v -4.000000 -0.364171 1.000000
v -3.000000 -0.364171 1.000000
v -2.000000 -0.364171 1.000000
v -1.000000 -0.364171 1.000000
v 1.000000 -0.364171 1.000000
v 2.000000 -0.364171 1.000000
v 3.000000 -0.364171 1.000000
v 4.000000 -0.364171 1.000000
v -4.000000 -0.364171 2.000000
v -3.000000 -0.364171 2.000000
v -2.000000 -0.364171 2.000000
v -1.000000 -0.364171 2.000000
v 0.000000 -0.364171 2.000000
v 1.000000 -0.364171 2.000000
v 2.000000 -0.364171 2.000000
v 3.000000 -0.364171 2.000000
v 4.000000 -0.364171 2.000000
v -5.000000 -0.364171 3.000000
v -4.000000 -0.364171 3.000000
v -3.000000 -0.364171 3.000000
v -2.000000 -0.364171 3.000000
v -1.000000 -0.364171 3.000000
v 0.000000 -0.364171 3.000000
v 1.000000 -0.364171 3.000000
v 2.000000 -0.364171 3.000000
v 3.000000 -0.364171 3.000000
v 4.000000 -0.364171 3.000000
v -5.000000 -0.364171 4.000000
v -3.000000 -0.364171 4.000000
v -2.000000 -0.364171 4.000000
v -1.000000 -0.364171 4.000000
v 0.000000 -0.364171 4.000000
v 1.000000 -0.364171 4.000000
v 2.000000 -0.364171 4.000000
v 3.000000 -0.364171 4.000000
v -5.000000 -0.364171 5.000000
v -4.000000 -0.364171 5.000000
v -3.000000 -0.364171 5.000000
v -2.000000 -0.364171 5.000000
v -1.000000 -0.364171 5.000000
v 1.000000 -0.364171 5.000000
v 2.000000 -0.364171 5.000000
vn -0.577350 0.577350 -0.577350
vn 0.000000 0.707107 -0.707107
vn 0.000000 0.707107 -0.707107
vn 0.577350 0.577350 -0.577350
vn -0.707107 0.707107 0.000000
vn 0.000000 1.000000 0.000000
vn 0.000000 1.000000 0.000000
vn 0.707107 0.707107 0.000000
vn -0.577350 0.577350 -0.577350
vn 0.000000 0.707107 -0.707107
vn 0.000000 0.707107 -0.707107
vn 0.577350 0.577350 -0.577350
vn -0.707107 0.707107 0.000000
vn 0.000000 1.000000 0.000000
vn 0.000000 1.000000 0.000000
vn 0.707107 0.707107 0.000000
vn -0.707107 0.707107 0.000000
vn 0.000000 1.000000 0.000000
vn 0.000000 1.000000 0.000000
vn 0.707107 0.707107 0.000000
vn -0.577350 0.577350 0.577350
vn -0.301511 0.904534 0.301511
vn 0.301511 0.904534 0.301511
vn 0.577350 0.577350 0.577350
vn -0.707107 0.707107 0.000000
vn 0.000000 1.000000 0.000000
vn 0.000000 1.000000 0.000000
vn 0.707107 0.707107 0.000000
vn -0.577350 0.577350 -0.577350
vn -0.301511 0.904534 -0.301511
vn 0.301511 0.904534 -0.301511
vn 0.000000 0.707107 -0.707107
vn 0.000000 0.707107 -0.707107
vn 0.577350 0.577350 -0.577350
vn -0.577350 0.577350 0.577350
vn -0.301511 0.904534 0.301511
vn 0.301511 0.904534 0.301511
vn 0.577350 0.577350 0.577350
vn -0.577350 0.577350 0.577350
vn 0.000000 0.707107 0.707107
vn -0.301511 0.904534 0.301511
vn 0.301511 0.904534 0.301511
vn 0.000000 0.707107 0.707107
vn 0.577350 0.577350 0.577350
vn -0.577350 0.577350 -0.577350
vn 0.000000 0.707107 -0.707107
vn -0.301511 0.904534 -0.301511
vn 0.707107 0.707107 0.000000
vn -0.577350 0.577350 -0.577350
vn -0.301511 0.904534 -0.301511
vn 0.301511 0.904534 -0.301511
vn 0.577350 0.577350 -0.577350
vn -0.577350 0.577350 0.577350
vn -0.301511 0.904534 0.301511
vn 0.301511 0.904534 0.301511
vn 0.577350 0.577350 0.577350
vn -0.577350 0.577350 0.577350
vn 0.000000 0.707107 0.707107
vn -0.301511 0.904534 0.301511
vn 0.301511 0.904534 -0.301511
vn 0.000000 0.707107 -0.707107
vn 0.577350 0.577350 -0.577350
vn -0.707107 0.707107 0.000000
vn 0.301511 0.904534 -0.301511
vn 0.577350 0.577350 -0.577350
vn -0.577350 0.577350 -0.577350
vn 0.000000 0.707107 -0.707107
vn 0.577350 0.577350 -0.577350
vn -0.707107 0.707107 0.000000
vn 0.301511 0.904534 0.301511
vn -0.301511 0.904534 0.301511
vn 0.301511 0.904534 -0.301511
vn -0.301511 0.904534 -0.301511
vn 0.301511 0.904534 0.301511
vn 0.577350 0.577350 0.577350
vn -0.707107 0.707107 0.000000
vn 0.000000 1.000000 0.000000
vn 0.301511 0.904534 -0.301511
vn -0.301511 0.904534 -0.301511
vn 0.707107 0.707107 0.000000
vn -0.577350 0.577350 0.577350
vn -0.301511 0.904534 0.301511
vn 0.301511 0.904534 0.301511
vn 0.577350 0.577350 0.577350
vn -0.577350 0.577350 0.577350
vn 0.000000 0.707107 0.707107
vn 0.000000 0.707107 0.707107
vn 0.000000 0.707107 0.707107
vn 0.577350 0.577350 0.577350
vn -0.577350 0.577350 0.577350
vn 0.577350 0.577350 0.577350
vn -0.577350 -0.577350 -0.577350
vn 0.000000 -0.447214 -0.894427
vn 0.000000 -0.447214 -0.894427
vn 0.577350 -0.577350 -0.577350
vn -0.894427 -0.447214 0.000000
vn 0.894427 -0.447214 0.000000
vn -0.577350 -0.577350 -0.577350
vn 0.000000 -0.447214 -0.894427
vn 0.000000 -0.447214 -0.894427
vn 0.577350 -0.577350 -0.577350
vn -0.894427 -0.447214 0.000000
vn 0.894427 -0.447214 0.000000
vn -0.894427 -0.447214 0.000000
vn 0.894427 -0.447214 0.000000
vn -0.577350 -0.577350 0.577350
vn -0.577350 -0.577350 0.577350
vn 0.577350 -0.577350 0.577350
vn 0.577350 -0.577350 0.577350
vn -0.894427 -0.447214 0.000000
vn 0.894427 -0.447214 0.000000
vn -0.577350 -0.577350 -0.577350
vn -0.577350 -0.577350 -0.577350
vn 0.577350 -0.577350 -0.577350
vn 0.000000 -0.447214 -0.894427
vn 0.000000 -0.447214 -0.894427
vn 0.577350 -0.577350 -0.577350
vn -0.577350 -0.577350 0.577350
vn -0.577350 -0.577350 0.577350
vn 0.577350 -0.577350 0.577350
vn 0.577350 -0.577350 0.577350
vn -0.577350 -0.577350 0.577350
vn 0.000000 -0.447214 0.894427
vn -0.577350 -0.577350 0.577350
vn 0.577350 -0.577350 0.577350
vn 0.000000 -0.447214 0.894427
vn 0.577350 -0.577350 0.577350
vn -0.577350 -0.577350 -0.577350
vn 0.000000 -0.447214 -0.894427
vn -0.577350 -0.577350 -0.577350
vn 0.894427 -0.447214 0.000000
vn -0.577350 -0.577350 -0.577350
vn -0.577350 -0.577350 -0.577350
vn 0.577350 -0.577350 -0.577350
vn 0.577350 -0.577350 -0.577350
vn -0.577350 -0.577350 0.577350
vn -0.577350 -0.577350 0.577350
vn 0.577350 -0.577350 0.577350
vn 0.577350 -0.577350 0.577350
vn -0.577350 -0.577350 0.577350
vn 0.000000 -0.447214 0.894427
vn -0.577350 -0.577350 0.577350
vn 0.577350 -0.577350 -0.577350
vn 0.000000 -0.447214 -0.894427
vn 0.577350 -0.577350 -0.577350
vn -0.894427 -0.447214 0.000000
vn 0.577350 -0.577350 -0.577350
vn 0.577350 -0.577350 -0.577350
vn -0.577350 -0.577350 -0.577350
vn 0.000000 -0.447214 -0.894427
vn 0.577350 -0.577350 -0.577350
vn -0.894427 -0.447214 0.000000
vn 0.577350 -0.577350 0.577350
vn -0.577350 -0.577350 0.577350
vn 0.577350 -0.577350 -0.577350
vn -0.577350 -0.577350 -0.577350
vn 0.577350 -0.577350 0.577350
vn 0.577350 -0.577350 0.577350
vn -0.894427 -0.447214 0.000000
vn 0.577350 -0.577350 -0.577350
vn -0.577350 -0.577350 -0.577350
vn 0.894427 -0.447214 0.000000
vn -0.577350 -0.577350 0.577350
vn -0.577350 -0.577350 0.577350
vn 0.577350 -0.577350 0.577350
vn 0.577350 -0.577350 0.577350
vn -0.577350 -0.577350 0.577350
vn 0.000000 -0.447214 0.894427
vn 0.000000 -0.447214 0.894427
vn 0.000000 -0.447214 0.894427
vn 0.577350 -0.577350 0.577350
vn -0.577350 -0.577350 0.577350
vn 0.577350 -0.577350 0.577350
vt 0.004951 0.896040
vt 0.103960 0.896040
vt 0.103960 0.995049
vt 0.004951 0.995049
vt 0.004951 0.797030
vt 0.103960 0.797030
vt 0.004951 0.698020
vt 0.103960 0.698020
vt 0.004951 0.500000
vt 0.103960 0.500000
vt 0.004951 0.599010
vt 0.004951 0.103960
vt 0.103960 0.103960
vt 0.103960 0.202970
vt 0.004951 0.202970
vt 0.004951 0.004951
vt 0.103960 0.004951
vt 0.202970 0.896040
vt 0.202970 0.995049
vt 0.202970 0.797030
vt 0.202970 0.698020
vt 0.103960 0.599010
vt 0.202970 0.599010
vt 0.202970 0.500000
vt 0.103960 0.301980
vt 0.202970 0.301980
vt 0.103960 0.400990
vt 0.202970 0.103960
vt 0.202970 0.202970
vt 0.202970 0.004951
vt 0.301980 0.896040
vt 0.301980 0.995049
vt 0.301980 0.797030
vt 0.301980 0.698020
vt 0.301980 0.500000
vt 0.301980 0.599010
vt 0.202970 0.400990
vt 0.301980 0.400990
vt 0.301980 0.301980
vt 0.301980 0.004951
vt 0.400990 0.500000
vt 0.400990 0.599010
vt 0.400990 0.301980
vt 0.400990 0.400990
vt 0.301980 0.202970
vt 0.400990 0.202970
vt 0.301980 0.103960
vt 0.400990 0.103960
vt 0.400990 0.004951
vt 0.500000 0.500000
vt 0.500000 0.599010
vt 0.500000 0.202970
vt 0.500000 0.301980
vt 0.599010 0.202970
vt 0.599010 0.301980
vt 0.500000 0.103960
vt 0.599010 0.103960
vt 0.599010 0.400990
vt 0.698020 0.400990
vt 0.698020 0.500000
vt 0.599010 0.500000
vt 0.698020 0.103960
vt 0.599010 0.004951
vt 0.698020 0.004951
vt 0.698020 0.797030
vt 0.797030 0.797030
vt 0.797030 0.896040
vt 0.698020 0.896040
vt 0.698020 0.698020
vt 0.797030 0.698020
vt 0.698020 0.599010
vt 0.797030 0.599010
vt 0.797030 0.400990
vt 0.698020 0.301980
vt 0.797030 0.301980
vt 0.698020 0.202970
vt 0.797030 0.202970
vt 0.797030 0.103960
vt 0.896040 0.797030
vt 0.896040 0.896040
vt 0.896040 0.698020
vt 0.896040 0.599010
vt 0.797030 0.500000
vt 0.896040 0.500000
vt 0.896040 0.400990
vt 0.896040 0.202970
vt 0.896040 0.301980
vt 0.995049 0.797030
vt 0.995049 0.896040
vt 0.995049 0.698020
vt 0.995049 0.599010
vt 0.000000 0.000000
vt 0.000000 0.000000
vt 0.000000 0.000000
vt 0.000000 0.000000
vt 0.000000 0.000000
vt 0.000000 0.000000
vt 0.000000 0.000000
vt 0.000000 0.000000
vt 0.000000 0.000000
vt 0.000000 0.000000
vt 0.000000 0.000000
vt 0.000000 0.000000
vt 0.000000 0.000000
vt 0.000000 0.000000
vt 0.000000 0.000000
vt 0.000000 0.000000
vt 0.000000 0.000000
vt 0.000000 0.000000
vt 0.000000 0.000000
vt 0.000000 0.000000
vt 0.000000 0.000000
vt 0.000000 0.000000
vt 0.000000 0.000000
vt 0.000000 0.000000
vt 0.000000 0.000000
vt 0.000000 0.000000
vt 0.000000 0.000000
vt 0.000000 0.000000
vt 0.000000 0.000000
vt 0.000000 0.000000
vt 0.000000 0.000000
vt 0.000000 0.000000
vt 0.000000 0.000000
vt 0.000000 0.000000
vt 0.000000 0.000000
vt 0.000000 0.000000
vt 0.000000 0.000000
vt 0.000000 0.000000
vt 0.000000 0.000000
vt 0.000000 0.000000
vt 0.000000 0.000000
vt 0.000000 0.000000
vt 0.000000 0.000000
vt 0.000000 0.000000
vt 0.000000 0.000000
vt 0.000000 0.000000
vt 0.000000 0.000000
vt 0.000000 0.000000
vt 0.000000 0.000000
vt 0.000000 0.000000
vt 0.000000 0.000000
vt 0.000000 0.000000
vt 0.000000 0.000000
vt 0.000000 0.000000
vt 0.000000 0.000000
vt 0.000000 0.000000
vt 0.000000 0.000000
vt 0.000000 0.000000
vt 0.000000 0.000000
vt 0.000000 0.000000
vt 0.000000 0.000000
vt 0.000000 0.000000
vt 0.000000 0.000000
vt 0.000000 0.000000
vt 0.000000 0.000000
vt 0.000000 0.000000
vt 0.000000 0.000000
vt 0.000000 0.000000
vt 0.000000 0.000000
vt 0.000000 0.000000
vt 0.000000 0.000000
vt 0.000000 0.000000
vt 0.000000 0.000000
vt 0.000000 0.000000
vt 0.000000 0.000000
vt 0.000000 0.000000
vt 0.000000 0.000000
vt 0.000000 0.000000
vt 0.000000 0.000000
vt 0.000000 0.000000
vt 0.000000 0.000000
vt 0.000000 0.000000
vt 0.000000 0.000000
vt 0.000000 0.000000
vt 0.000000 0.000000
vt 0.000000 0.000000
vt 0.000000 0.000000
vt 0.000000 0.000000
vt 0.000000 0.000000
vt 0.000000 0.000000
vt 0.000000 0.000000
vt 0.000000 0.000000
vt 0.000000 0.000000
vt 0.000000 0.000000
vt 0.000000 0.000000
vt 0.000000 0.000000
vt 0.000000 0.000000
vt 0.000000 0.000000
vt 0.000000 0.000000
vt 0.000000 0.000000
vt 0.000000 0.000000
vt 0.000000 0.000000
vt 0.000000 0.000000
vt 0.000000 0.000000
vt 0.000000 0.000000
vt 0.000000 0.000000
vt 0.000000 0.000000
vt 0.000000 0.000000
vt 0.000000 0.000000
vt 0.000000 0.000000
vt 0.000000 0.000000
vt 0.000000 0.000000
vt 0.000000 0.000000
vt 0.000000 0.000000
vt 0.000000 0.000000
vt 0.000000 0.000000
vt 0.000000 0.000000
vt 0.000000 0.000000
vt 0.000000 0.000000
vt 0.000000 0.000000
vt 0.000000 0.000000
vt 0.000000 0.000000
vt 0.000000 0.000000
vt 0.000000 0.000000
vt 0.000000 0.000000
vt 0.000000 0.000000
vt 0.000000 0.000000
vt 0.000000 0.000000
vt 0.000000 0.000000
vt 0.000000 0.000000
vt 0.000000 0.000000
vt 0.000000 0.000000
vt 0.000000 0.000000
vt 0.000000 0.000000
vt 0.000000 0.000000
vt 0.000000 0.000000
vt 0.000000 0.000000
vt 0.000000 0.000000
vt 0.000000 0.000000
vt 0.000000 0.000000
vt 0.000000 0.000000
vt 0.000000 0.000000
vt 0.000000 0.000000
vt 0.000000 0.000000
vt 0.000000 0.000000
vt 0.000000 0.000000
vt 0.000000 0.000000
vt 0.000000 0.000000
vt 0.000000 0.000000
vt 0.000000 0.000000
vt 0.000000 0.000000
vt 0.000000 0.000000
vt 0.000000 0.000000
vt 0.000000 0.000000
vt 0.000000 0.000000
vt 0.000000 0.000000
vt 0.000000 0.000000
vt 0.000000 0.000000
vt 0.000000 0.000000
vt 0.000000 0.000000
vt 0.000000 0.000000
vt 0.000000 0.000000
vt 0.000000 0.000000
vt 0.000000 0.000000
vt 0.000000 0.000000
vt 0.000000 0.000000
vt 0.000000 0.000000
vt 0.000000 0.000000
vt 0.000000 0.000000
vt 0.000000 0.000000
vt 0.000000 0.000000
vt 0.000000 0.000000
vt 0.000000 0.000000
vt 0.000000 0.000000
vt 0.000000 0.000000
vt 0.000000 0.000000
vt 0.000000 0.000000
vt 0.000000 0.000000
vt 0.000000 0.000000
vt 0.000000 0.000000
vt 0.000000 0.000000
vt 0.000000 0.000000
vt 0.000000 0.000000
vt 0.000000 0.000000
vt 0.000000 0.000000
vt 0.000000 0.000000
vt 0.000000 0.000000
vt 0.000000 0.000000
vt 0.000000 0.000000
vt 0.000000 0.000000
vt 0.000000 0.000000
vt 0.000000 0.000000
vt 0.000000 0.000000
vt 0.000000 0.000000
vt 0.000000 0.000000
vt 0.000000 0.000000
vt 0.000000 0.000000
vt 0.000000 0.000000
vt 0.000000 0.000000
vt 0.000000 0.000000
vt 0.000000 0.000000
vt 0.000000 0.000000
vt 0.000000 0.000000
vt 0.000000 0.000000
vt 0.000000 0.000000
vt 0.000000 0.000000
vt 0.000000 0.000000
vt 0.000000 0.000000
vt 0.000000 0.000000
vt 0.000000 0.000000
vt 0.000000 0.000000
vt 0.000000 0.000000
vt 0.000000 0.000000
vt 0.000000 0.000000
vt 0.000000 0.000000
vt 0.000000 0.000000
vt 0.000000 0.000000
vt 0.000000 0.000000
vt 0.000000 0.000000
vt 0.000000 0.000000
vt 0.000000 0.000000
vt 0.000000 0.000000
vt 0.000000 0.000000
vt 0.000000 0.000000
vt 0.000000 0.000000
vt 0.000000 0.000000
vt 0.000000 0.000000
vt 0.000000 0.000000
vt 0.000000 0.000000
vt 0.000000 0.000000
vt 0.000000 0.000000
vt 0.000000 0.000000
vt 0.000000 0.000000
vt 0.000000 0.000000
vt 0.000000 0.000000
vt 0.000000 0.000000
vt 0.000000 0.000000
vt 0.000000 0.000000
vt 0.000000 0.000000
vt 0.000000 0.000000
vt 0.000000 0.000000
vt 0.000000 0.000000
vt 0.000000 0.000000
vt 0.000000 0.000000
vt 0.000000 0.000000
vt 0.000000 0.000000
g Grid
usemtl Default
f 5/1/5 6/2/6 2/3/2 1/4/1 
f 13/5/13 14/6/14 6/2/6 5/1/5 
f 21/7/21 22/8/22 14/6/14 13/5/13 
f 39/9/39 40/10/40 30/22/30 29/11/29 
f 76/12/76 77/13/77 67/14/67 66/15/66 
f 85/16/85 86/17/86 77/13/77 76/12/76 
f 6/2/6 7/18/7 3/19/3 2/3/2 
f 14/6/14 15/20/15 7/18/7 6/2/6 
f 22/8/22 23/21/23 15/20/15 14/6/14 
f 30/22/30 31/23/31 23/21/23 22/8/22 
f 40/10/40 41/24/41 31/23/31 30/22/30 
f 57/25/57 58/26/58 50/37/50 49/27/49 
f 77/13/77 78/28/78 68/29/68 67/14/67 
f 86/17/86 87/30/87 78/28/78 77/13/77 
f 7/18/7 8/31/8 4/32/4 3/19/3 
f 15/20/15 16/33/16 8/31/8 7/18/7 
f 23/21/23 24/34/24 16/33/16 15/20/15 
f 41/24/41 42/35/42 32/36/32 31/23/31 
f 50/37/50 51/38/51 42/35/42 41/24/41 
f 58/26/58 59/39/59 51/38/51 50/37/50 
f 87/30/87 88/40/88 79/47/79 78/28/78 
f 42/35/42 43/41/43 33/42/33 32/36/32 
f 59/39/59 60/43/60 52/44/52 51/38/51 
f 69/45/69 70/46/70 60/43/60 59/39/59 
f 79/47/79 80/48/80 70/46/70 69/45/69 
f 88/40/88 89/49/89 80/48/80 79/47/79 
f 43/41/43 44/50/44 34/51/34 33/42/33 
f 70/46/70 71/52/71 61/53/61 60/43/60 
f 71/52/71 72/54/72 62/55/62 61/53/61 
f 81/56/81 82/57/82 72/54/72 71/52/71 
f 53/58/53 54/59/54 46/60/46 45/61/45 
f 82/57/82 83/62/83 73/76/73 72/54/72 
f 90/63/90 91/64/91 83/62/83 82/57/82 
f 17/65/17 18/66/18 10/67/10 9/68/9 
f 25/69/25 26/70/26 18/66/18 17/65/17 
f 35/71/35 36/72/36 26/70/26 25/69/25 
f 54/59/54 55/73/55 47/83/47 46/60/46 
f 63/74/63 64/75/64 55/73/55 54/59/54 
f 73/76/73 74/77/74 64/75/64 63/74/63 
f 83/62/83 84/78/84 74/77/74 73/76/73 
f 18/66/18 19/79/19 11/80/11 10/67/10 
f 26/70/26 27/81/27 19/79/19 18/66/18 
f 36/72/36 37/82/37 27/81/27 26/70/26 
f 47/83/47 48/84/48 37/82/37 36/72/36 
f 55/73/55 56/85/56 48/84/48 47/83/47 
f 74/77/74 75/86/75 65/87/65 64/75/64 
f 19/79/19 20/88/20 12/89/12 11/80/11 
f 27/81/27 28/90/28 20/88/20 19/79/19 
f 37/82/37 38/91/38 28/90/28 27/81/27 
f 93/92/93 92/93/92 1/94/1 2/95/2 
f 92/93/92 96/96/96 5/97/5 1/94/1 
f 96/96/96 102/98/102 13/99/13 5/97/5 
f 106/100/106 107/101/107 22/102/22 21/103/21 
f 102/98/102 106/100/106 21/103/21 13/99/13 
f 122/104/122 123/105/123 40/106/40 39/107/39 
f 113/108/113 112/109/112 29/110/29 30/111/30 
f 112/109/112 122/104/122 39/107/39 29/110/29 
f 150/112/150 149/113/149 66/114/66 67/115/67 
f 149/113/149 159/116/159 76/117/76 66/114/66 
f 167/118/167 168/119/168 86/120/86 85/121/85 
f 159/116/159 167/118/167 85/121/85 76/117/76 
f 94/122/94 93/92/93 2/95/2 3/123/3 
f 114/124/114 108/125/108 23/126/23 31/127/31 
f 107/101/107 113/108/113 30/111/30 22/102/22 
f 123/105/123 124/128/124 41/129/41 40/106/40 
f 140/130/140 141/131/141 58/132/58 57/133/57 
f 133/134/133 132/135/132 49/136/49 50/137/50 
f 132/135/132 140/130/140 57/133/57 49/136/49 
f 160/138/160 151/139/151 68/140/68 78/141/78 
f 151/139/151 150/112/150 67/115/67 68/140/68 
f 168/119/168 169/142/169 87/143/87 86/120/86 
f 97/144/97 95/145/95 4/146/4 8/147/8 
f 95/145/95 94/122/94 3/123/3 4/146/4 
f 103/148/103 97/144/97 8/147/8 16/149/16 
f 108/125/108 109/150/109 24/151/24 23/126/23 
f 109/150/109 103/148/103 16/149/16 24/151/24 
f 115/152/115 114/124/114 31/127/31 32/153/32 
f 134/154/134 125/155/125 42/156/42 51/157/51 
f 124/128/124 133/134/133 50/137/50 41/129/41 
f 141/131/141 142/158/142 59/159/59 58/132/58 
f 169/142/169 170/160/170 88/161/88 87/143/87 
f 161/162/161 160/138/160 78/141/78 79/163/79 
f 125/155/125 126/164/126 43/165/43 42/156/42 
f 116/166/116 115/152/115 32/153/32 33/167/33 
f 143/168/143 135/169/135 52/170/52 60/171/60 
f 135/169/135 134/154/134 51/157/51 52/170/52 
f 142/158/142 152/172/152 69/173/69 59/159/59 
f 162/174/162 153/175/153 70/176/70 80/177/80 
f 152/172/152 161/162/161 79/163/79 69/173/69 
f 170/160/170 171/178/171 89/179/89 88/161/88 
f 171/178/171 162/174/162 80/177/80 89/179/89 
f 126/164/126 127/180/127 44/181/44 43/165/43 
f 127/180/127 117/182/117 34/183/34 44/181/44 
f 117/182/117 116/166/116 33/167/33 34/183/34 
f 153/175/153 154/184/154 71/185/71 70/176/70 
f 144/186/144 143/168/143 60/171/60 61/187/61 
f 155/188/155 145/189/145 62/190/62 72/191/72 
f 145/189/145 144/186/144 61/187/61 62/190/62 
f 163/192/163 164/193/164 82/194/82 81/195/81 
f 154/184/154 163/192/163 81/195/81 71/185/71 
f 136/196/136 137/197/137 54/198/54 53/199/53 
f 129/200/129 128/201/128 45/202/45 46/203/46 
f 128/201/128 136/196/136 53/199/53 45/202/45 
f 156/204/156 155/188/155 72/191/72 73/205/73 
f 172/206/172 173/207/173 91/208/91 90/209/90 
f 173/207/173 165/210/165 83/211/83 91/208/91 
f 164/193/164 172/206/172 90/209/90 82/194/82 
f 99/212/99 98/213/98 9/214/9 10/215/10 
f 98/213/98 104/216/104 17/217/17 9/214/9 
f 104/216/104 110/218/110 25/219/25 17/217/17 
f 118/220/118 119/221/119 36/222/36 35/223/35 
f 110/218/110 118/220/118 35/223/35 25/219/25 
f 130/224/130 129/200/129 46/203/46 47/225/47 
f 147/226/147 138/227/138 55/228/55 64/229/64 
f 137/197/137 146/230/146 63/231/63 54/198/54 
f 146/230/146 156/204/156 73/205/73 63/231/63 
f 165/210/165 166/232/166 84/233/84 83/211/83 
f 166/232/166 157/234/157 74/235/74 84/233/84 
f 100/236/100 99/212/99 10/215/10 11/237/11 
f 131/238/131 120/239/120 37/240/37 48/241/48 
f 119/221/119 130/224/130 47/225/47 36/222/36 
f 138/227/138 139/242/139 56/243/56 55/228/55 
f 139/242/139 131/238/131 48/241/48 56/243/56 
f 157/234/157 158/244/158 75/245/75 74/235/74 
f 158/244/158 148/246/148 65/247/65 75/245/75 
f 148/246/148 147/226/147 64/229/64 65/247/65 
f 105/248/105 101/249/101 12/250/12 20/251/20 
f 101/249/101 100/236/100 11/237/11 12/250/12 
f 111/252/111 105/248/105 20/251/20 28/253/28 
f 120/239/120 121/254/121 38/255/38 37/240/37 
f 121/254/121 111/252/111 28/253/28 38/255/38 
f 93/256/93 94/257/94 95/258/95 97/259/97 103/260/103 109/261/109 108/262/108 114/263/114 115/264/115 116/265/116 117/266/117 127/267/127 126/268/126 125/269/125 134/270/134 135/271/135 143/272/143 144/273/144 145/274/145 155/275/155 156/276/156 146/277/146 137/278/137 136/279/136 128/280/128 129/281/129 130/282/130 119/283/119 118/284/118 110/285/110 104/286/104 98/287/98 99/288/99 100/289/100 101/290/101 105/291/105 111/292/111 121/293/121 120/294/120 131/295/131 139/296/139 138/297/138 147/298/147 148/299/148 158/300/158 157/301/157 166/302/166 165/303/165 173/304/173 172/305/172 164/306/164 163/307/163 154/308/154 153/309/153 162/310/162 171/311/171 170/312/170 169/313/169 168/314/168 167/315/167 159/316/159 149/317/149 150/318/150 151/319/151 160/320/160 161/321/161 152/322/152 142/323/142 141/324/141 140/325/140 132/326/132 133/327/133 124/328/124 123/329/123 122/330/122 112/331/112 113/332/113 107/333/107 106/334/106 102/335/102 96/336/96 92/337/92 
