mtllib Prize.mtl
o Prize.obj
v 0.008224 0.000000 -0.009327
v -0.500000 1.000000 -0.500000
v 0.500000 1.000000 -0.500000
v -0.022257 2.000000 -0.019903
v -0.500000 1.000000 0.500000
v 0.500000 1.000000 0.500000
vn 0.003290 -0.999988 -0.003731
vn -0.705985 -0.011687 -0.708130
vn 0.704034 0.005497 -0.710145
vn -0.008902 0.999929 -0.007962
vn -0.710149 -0.005764 0.704028
vn 0.708136 0.011537 0.705982
vt 0.564088 0.651078
vt 0.564088 0.711910
vt 0.518385 0.671256
vt 0.703627 0.525239
vt 0.703627 0.586493
vt 0.658427 0.565212
vt 0.564143 0.588582
vt 0.564143 0.649795
vt 0.518385 0.629743
vt 0.610370 0.525239
vt 0.610370 0.587299
vt 0.565041 0.546244
vt 0.610865 0.588582
vt 0.610865 0.649795
vt 0.565427 0.609349
vt 0.563758 0.525239
vt 0.563758 0.587299
vt 0.518385 0.566389
vt 0.657378 0.588582
vt 0.657378 0.649739
vt 0.612148 0.609800
vt 0.657143 0.525239
vt 0.657143 0.586787
vt 0.611654 0.566132
g Cube
usemtl Default
f 3/1/3 1/2/1 2/3/2 
f 4/4/4 3/5/3 2/6/2 
f 1/7/1 6/8/6 5/9/5 
f 6/10/6 4/11/4 5/12/5 
f 6/13/6 1/14/1 3/15/3 
f 4/16/4 6/17/6 3/18/3 
f 5/19/5 4/20/4 2/21/2 
f 1/22/1 5/23/5 2/24/2 
