mtllib SixSidedDie.mtl
o SixSidedDie.obj
v -0.500000 -0.500000 -0.500000
v 0.500000 -0.500000 -0.500000
v -0.500000 0.500000 -0.500000
v 0.500000 0.500000 -0.500000
v -0.500000 -0.500000 0.500000
v 0.500000 -0.500000 0.500000
v -0.500000 0.500000 0.500000
v 0.500000 0.500000 0.500000
vn -0.577350 -0.577350 -0.577350
vn 0.577350 -0.577350 -0.577350
vn -0.577350 0.577350 -0.577350
vn 0.577350 0.577350 -0.577350
vn -0.577350 -0.577350 0.577350
vn 0.577350 -0.577350 0.577350
vn -0.577350 0.577350 0.577350
vn 0.577350 0.577350 0.577350
vt 1.000069 0.668610
vt 0.667528 0.668610
vt 0.667528 0.331057
vt 1.000069 0.331057
vt 0.335697 0.665786
vt 0.335697 0.999355
vt -0.000586 0.999355
vt -0.000586 0.665786
vt 0.668387 0.666139
vt 0.668387 1.000149
vt 0.334377 1.000149
vt 0.334377 0.666139
vt 0.666602 0.667734
vt 0.999266 0.667734
vt 0.999266 1.000399
vt 0.666602 1.000399
vt 0.668546 0.666951
vt 0.333637 0.666951
vt 0.333637 0.333198
vt 0.668546 0.333198
vt 0.000711 0.666213
vt 0.000711 0.333166
vt 0.335879 0.333166
vt 0.335879 0.666213
g Cube
usemtl Default
f 4/1/4 2/2/2 1/3/1 3/4/3 
f 6/5/6 8/6/8 7/7/7 5/8/5 
f 6/9/6 5/10/5 1/11/1 2/12/2 
f 8/13/8 6/14/6 2/15/2 4/16/4 
f 7/17/7 8/18/8 4/19/4 3/20/3 
f 5/21/5 7/22/7 3/23/3 1/24/1 
